# xmcd
#
# Track frame offsets: 
#        150
#        13604
#        25036
#        36793
#        51568
#        67313
#        78206
#        88167
#        99956
#        114508
#        126093
#        145517
#        160015
#        175291
#        190635
#        208858
#        222605
#        233224
#
# Disc length: 3291 seconds
#
# Revision: 1
# Processed by: cddbd v1.5.2PL0 Copyright (c) Steve Scherf et al.
# Submitted via: ExactAudioCopy v0.99pb3
#
DISCID=f80cd912
DTITLE=Various Artist - blues 4 you
DYEAR=2000
DGENRE=Blues
TTITLE0=Lightnin' Hopkins/Mojo Hand
TTITLE1=Lightning Slim/Bad Luck Blues
TTITLE2=Jelly Roll Morton/Meaple Leaf Rag
TTITLE3=Leadbelly/The House Of The Rising Sun 
TTITLE4=Lightnin' Hopkins/Coffee For Mama
TTITLE5=Lightning Slim/My Babe
TTITLE6=Jelly Roll Morton/King Porter Stomp
TTITLE7=Leadbelly/The Boll Weevil Song
TTITLE8=Lightnin' Hopkins/Santa Fe Blues
TTITLE9=Lightning Slim/Lightning's Bad Luck
TTITLE10=Leadbelly/John Hardy
TTITLE11=Jelly Roll Morton/Jelly Roll Blues
TTITLE12=Lightnin' Hopkins/Stool Pigeon Blues
TTITLE13=Jelly Roll Morton/Wolverine Blues
TTITLE14=Lightning Slim/Hoodoo Blues
TTITLE15=Leadbelly/Where Did You Sleep Last Night
TTITLE16=Lightnin' Hopkins/Coffee House Blues
TTITLE17=Lightning Slim/Good Morning Heartaches
EXTD=
EXTT0=
EXTT1=
EXTT2=
EXTT3=
EXTT4=
EXTT5=
EXTT6=
EXTT7=
EXTT8=
EXTT9=
EXTT10=
EXTT11=
EXTT12=
EXTT13=
EXTT14=
EXTT15=
EXTT16=
EXTT17=
PLAYORDER=
